<mxfile host="app.diagrams.net" modified="2024-03-08T06:47:22.178Z" agent="Mozilla/5.0 (Windows NT 10.0; Win64; x64) AppleWebKit/537.36 (KHTML, like Gecko) Chrome/122.0.0.0 Safari/537.36 Edg/122.0.0.0" etag="hUuNiTsxHP9lHr0cBxxY" version="24.0.2" type="github">
  <diagram id="C5RBs43oDa-KdzZeNtuy" name="Page-1">
    <mxGraphModel dx="1113" dy="625" grid="1" gridSize="10" guides="1" tooltips="1" connect="1" arrows="1" fold="1" page="1" pageScale="1" pageWidth="827" pageHeight="1169" math="0" shadow="0">
      <root>
        <mxCell id="WIyWlLk6GJQsqaUBKTNV-0" />
        <mxCell id="WIyWlLk6GJQsqaUBKTNV-1" parent="WIyWlLk6GJQsqaUBKTNV-0" />
        <mxCell id="4US2wmagP0krGcJPWE2--7" value="" style="edgeStyle=orthogonalEdgeStyle;rounded=0;orthogonalLoop=1;jettySize=auto;html=1;" edge="1" parent="WIyWlLk6GJQsqaUBKTNV-1" source="WIyWlLk6GJQsqaUBKTNV-3" target="4US2wmagP0krGcJPWE2--0">
          <mxGeometry relative="1" as="geometry" />
        </mxCell>
        <mxCell id="WIyWlLk6GJQsqaUBKTNV-3" value="&lt;span&gt;Click subscribe&amp;nbsp;&lt;/span&gt;" style="rounded=1;whiteSpace=wrap;html=1;fontSize=12;glass=0;strokeWidth=1;shadow=0;" parent="WIyWlLk6GJQsqaUBKTNV-1" vertex="1">
          <mxGeometry x="160" y="80" width="120" height="40" as="geometry" />
        </mxCell>
        <mxCell id="4US2wmagP0krGcJPWE2--6" value="" style="edgeStyle=orthogonalEdgeStyle;rounded=0;orthogonalLoop=1;jettySize=auto;html=1;" edge="1" parent="WIyWlLk6GJQsqaUBKTNV-1" source="4US2wmagP0krGcJPWE2--0" target="4US2wmagP0krGcJPWE2--1">
          <mxGeometry relative="1" as="geometry" />
        </mxCell>
        <mxCell id="4US2wmagP0krGcJPWE2--0" value="PaywallManagerImpl.&lt;br&gt;startPurchaseFlow&lt;br&gt;(activity, skuData)&amp;nbsp;" style="rounded=1;whiteSpace=wrap;html=1;fontSize=12;glass=0;strokeWidth=1;shadow=0;" vertex="1" parent="WIyWlLk6GJQsqaUBKTNV-1">
          <mxGeometry x="85" y="180" width="270" height="50" as="geometry" />
        </mxCell>
        <mxCell id="4US2wmagP0krGcJPWE2--8" value="" style="edgeStyle=orthogonalEdgeStyle;rounded=0;orthogonalLoop=1;jettySize=auto;html=1;" edge="1" parent="WIyWlLk6GJQsqaUBKTNV-1" source="4US2wmagP0krGcJPWE2--1" target="4US2wmagP0krGcJPWE2--2">
          <mxGeometry relative="1" as="geometry" />
        </mxCell>
        <mxCell id="4US2wmagP0krGcJPWE2--1" value="PurchaseFlowController.&lt;br&gt;startPurchaseFlow&amp;nbsp;" style="rounded=1;whiteSpace=wrap;html=1;fontSize=12;glass=0;strokeWidth=1;shadow=0;" vertex="1" parent="WIyWlLk6GJQsqaUBKTNV-1">
          <mxGeometry x="85" y="280" width="270" height="50" as="geometry" />
        </mxCell>
        <mxCell id="4US2wmagP0krGcJPWE2--9" value="" style="edgeStyle=orthogonalEdgeStyle;rounded=0;orthogonalLoop=1;jettySize=auto;html=1;" edge="1" parent="WIyWlLk6GJQsqaUBKTNV-1" source="4US2wmagP0krGcJPWE2--2" target="4US2wmagP0krGcJPWE2--5">
          <mxGeometry relative="1" as="geometry" />
        </mxCell>
        <mxCell id="4US2wmagP0krGcJPWE2--2" value="StorePurchaseController.&lt;br&gt;getPurchasedProducts" style="rounded=1;whiteSpace=wrap;html=1;fontSize=12;glass=0;strokeWidth=1;shadow=0;" vertex="1" parent="WIyWlLk6GJQsqaUBKTNV-1">
          <mxGeometry x="85" y="370" width="270" height="50" as="geometry" />
        </mxCell>
        <mxCell id="4US2wmagP0krGcJPWE2--11" value="" style="edgeStyle=orthogonalEdgeStyle;rounded=0;orthogonalLoop=1;jettySize=auto;html=1;" edge="1" parent="WIyWlLk6GJQsqaUBKTNV-1" source="4US2wmagP0krGcJPWE2--3" target="4US2wmagP0krGcJPWE2--4">
          <mxGeometry relative="1" as="geometry" />
        </mxCell>
        <mxCell id="4US2wmagP0krGcJPWE2--3" value="StorePurchaseController.&lt;br&gt;associatePurchaseWithMSA&amp;nbsp;" style="rounded=1;whiteSpace=wrap;html=1;fontSize=12;glass=0;strokeWidth=1;shadow=0;" vertex="1" parent="WIyWlLk6GJQsqaUBKTNV-1">
          <mxGeometry x="85" y="630" width="270" height="50" as="geometry" />
        </mxCell>
        <mxCell id="4US2wmagP0krGcJPWE2--4" value="StorePurchaseController.&lt;br&gt;acknowledgePurchase&lt;br&gt;[with Store]" style="rounded=1;whiteSpace=wrap;html=1;fontSize=12;glass=0;strokeWidth=1;shadow=0;" vertex="1" parent="WIyWlLk6GJQsqaUBKTNV-1">
          <mxGeometry x="85" y="730" width="270" height="50" as="geometry" />
        </mxCell>
        <mxCell id="4US2wmagP0krGcJPWE2--10" value="" style="edgeStyle=orthogonalEdgeStyle;rounded=0;orthogonalLoop=1;jettySize=auto;html=1;" edge="1" parent="WIyWlLk6GJQsqaUBKTNV-1" source="4US2wmagP0krGcJPWE2--5" target="4US2wmagP0krGcJPWE2--3">
          <mxGeometry relative="1" as="geometry" />
        </mxCell>
        <mxCell id="4US2wmagP0krGcJPWE2--12" value="YES" style="edgeLabel;html=1;align=center;verticalAlign=middle;resizable=0;points=[];" vertex="1" connectable="0" parent="4US2wmagP0krGcJPWE2--10">
          <mxGeometry x="-0.197" y="-1" relative="1" as="geometry">
            <mxPoint as="offset" />
          </mxGeometry>
        </mxCell>
        <mxCell id="4US2wmagP0krGcJPWE2--14" style="edgeStyle=orthogonalEdgeStyle;rounded=0;orthogonalLoop=1;jettySize=auto;html=1;exitX=1;exitY=0.5;exitDx=0;exitDy=0;entryX=0;entryY=0.5;entryDx=0;entryDy=0;" edge="1" parent="WIyWlLk6GJQsqaUBKTNV-1" source="4US2wmagP0krGcJPWE2--5" target="4US2wmagP0krGcJPWE2--13">
          <mxGeometry relative="1" as="geometry" />
        </mxCell>
        <mxCell id="4US2wmagP0krGcJPWE2--16" value="NO" style="edgeLabel;html=1;align=center;verticalAlign=middle;resizable=0;points=[];" vertex="1" connectable="0" parent="4US2wmagP0krGcJPWE2--14">
          <mxGeometry x="-0.8032" y="-1" relative="1" as="geometry">
            <mxPoint as="offset" />
          </mxGeometry>
        </mxCell>
        <mxCell id="4US2wmagP0krGcJPWE2--5" value="Purchased before?" style="rhombus;whiteSpace=wrap;html=1;" vertex="1" parent="WIyWlLk6GJQsqaUBKTNV-1">
          <mxGeometry x="90" y="470" width="260" height="80" as="geometry" />
        </mxCell>
        <mxCell id="4US2wmagP0krGcJPWE2--18" value="" style="edgeStyle=orthogonalEdgeStyle;rounded=0;orthogonalLoop=1;jettySize=auto;html=1;" edge="1" parent="WIyWlLk6GJQsqaUBKTNV-1" source="4US2wmagP0krGcJPWE2--13" target="4US2wmagP0krGcJPWE2--17">
          <mxGeometry relative="1" as="geometry" />
        </mxCell>
        <mxCell id="4US2wmagP0krGcJPWE2--13" value="purchaseProductFromStoreAsync" style="rounded=1;whiteSpace=wrap;html=1;fontSize=12;glass=0;strokeWidth=1;shadow=0;" vertex="1" parent="WIyWlLk6GJQsqaUBKTNV-1">
          <mxGeometry x="490" y="100" width="270" height="50" as="geometry" />
        </mxCell>
        <mxCell id="4US2wmagP0krGcJPWE2--20" value="" style="edgeStyle=orthogonalEdgeStyle;rounded=0;orthogonalLoop=1;jettySize=auto;html=1;" edge="1" parent="WIyWlLk6GJQsqaUBKTNV-1" source="4US2wmagP0krGcJPWE2--17" target="4US2wmagP0krGcJPWE2--19">
          <mxGeometry relative="1" as="geometry" />
        </mxCell>
        <mxCell id="4US2wmagP0krGcJPWE2--17" value="StorePurchaseController.&lt;br&gt;executeSkuPurchaseAsync" style="rounded=1;whiteSpace=wrap;html=1;fontSize=12;glass=0;strokeWidth=1;shadow=0;" vertex="1" parent="WIyWlLk6GJQsqaUBKTNV-1">
          <mxGeometry x="490" y="190" width="270" height="50" as="geometry" />
        </mxCell>
        <mxCell id="4US2wmagP0krGcJPWE2--27" value="" style="edgeStyle=orthogonalEdgeStyle;rounded=0;orthogonalLoop=1;jettySize=auto;html=1;dashed=1;" edge="1" parent="WIyWlLk6GJQsqaUBKTNV-1" source="4US2wmagP0krGcJPWE2--19" target="4US2wmagP0krGcJPWE2--22">
          <mxGeometry relative="1" as="geometry" />
        </mxCell>
        <mxCell id="4US2wmagP0krGcJPWE2--19" value="BillingClient.launchBillingFlow" style="rounded=1;whiteSpace=wrap;html=1;fontSize=12;glass=0;strokeWidth=1;shadow=0;" vertex="1" parent="WIyWlLk6GJQsqaUBKTNV-1">
          <mxGeometry x="490" y="290" width="270" height="50" as="geometry" />
        </mxCell>
        <mxCell id="4US2wmagP0krGcJPWE2--24" value="" style="edgeStyle=orthogonalEdgeStyle;rounded=0;orthogonalLoop=1;jettySize=auto;html=1;" edge="1" parent="WIyWlLk6GJQsqaUBKTNV-1" source="4US2wmagP0krGcJPWE2--22" target="4US2wmagP0krGcJPWE2--23">
          <mxGeometry relative="1" as="geometry" />
        </mxCell>
        <mxCell id="4US2wmagP0krGcJPWE2--22" value="BillingClientStateListener::&lt;br&gt;onPurchasesUpdated" style="rounded=1;whiteSpace=wrap;html=1;fontSize=12;glass=0;strokeWidth=1;shadow=0;" vertex="1" parent="WIyWlLk6GJQsqaUBKTNV-1">
          <mxGeometry x="490" y="390" width="270" height="50" as="geometry" />
        </mxCell>
        <mxCell id="4US2wmagP0krGcJPWE2--26" style="edgeStyle=orthogonalEdgeStyle;rounded=0;orthogonalLoop=1;jettySize=auto;html=1;exitX=0.5;exitY=1;exitDx=0;exitDy=0;entryX=0.75;entryY=0;entryDx=0;entryDy=0;" edge="1" parent="WIyWlLk6GJQsqaUBKTNV-1" source="4US2wmagP0krGcJPWE2--23" target="4US2wmagP0krGcJPWE2--3">
          <mxGeometry relative="1" as="geometry" />
        </mxCell>
        <mxCell id="4US2wmagP0krGcJPWE2--23" value="onPurchaseFlowCompleted&lt;br&gt;(purchasedItemMetadataList)" style="rounded=1;whiteSpace=wrap;html=1;fontSize=12;glass=0;strokeWidth=1;shadow=0;" vertex="1" parent="WIyWlLk6GJQsqaUBKTNV-1">
          <mxGeometry x="490" y="490" width="270" height="50" as="geometry" />
        </mxCell>
      </root>
    </mxGraphModel>
  </diagram>
</mxfile>
